<svg xmlns="http://www.w3.org/2000/svg" width="82.787" height="83.948" viewBox="0 0 82.787 83.948"><defs><style>.a{fill:#33330c;}</style></defs><g transform="translate(0)"><path class="a" d="M84,31.742a4.183,4.183,0,0,0-3.413-1.762H58.365a15.385,15.385,0,1,0-17.623,0H25.777V14.594a4.208,4.208,0,0,0-4.2-4.2H6.2a4.2,4.2,0,0,0,0,8.392H17.385V66.484a6.993,6.993,0,0,0,1.4,13.846h4.336a6.993,6.993,0,0,0,13.707,0H51.092a6.993,6.993,0,0,0,13.707,0h4.336a1.4,1.4,0,0,0,0-2.8H64.8a6.993,6.993,0,0,0-13.707,0H36.826a6.993,6.993,0,0,0-13.707,0H18.784a4.2,4.2,0,1,1,0-8.392H67.945a7.008,7.008,0,0,0,6.615-4.7l10-28.9A4.2,4.2,0,0,0,84,31.742ZM57.945,74.735a4.2,4.2,0,1,1-4.2,4.2,4.2,4.2,0,0,1,4.2-4.2Zm-27.973,0a4.2,4.2,0,1,1-4.2,4.2,4.2,4.2,0,0,1,4.2-4.2Zm6.993-57.344A12.588,12.588,0,1,1,49.553,29.979,12.588,12.588,0,0,1,36.966,17.392ZM81.918,34.637l-10,28.882a4.2,4.2,0,0,1-3.972,2.825H20.182V17.392a1.4,1.4,0,0,0-1.4-1.4H6.2a1.4,1.4,0,1,1,0-2.8H21.581a1.4,1.4,0,0,1,1.4,1.4V31.378a1.4,1.4,0,0,0,1.4,1.4H80.589a1.38,1.38,0,0,1,1.147.587,1.422,1.422,0,0,1,.182,1.273Z" transform="translate(-2 -1.983)"/><path class="a" d="M70.148,26H18.4A1.4,1.4,0,0,0,17,27.4V52.574a1.4,1.4,0,0,0,1.4,1.4H61.756a1.4,1.4,0,0,0,1.327-.957l8.392-25.175A1.4,1.4,0,0,0,70.148,26ZM42.175,41.385v9.79h-9.79v-9.79Zm-9.79-2.8V28.8h9.79v9.79Zm12.588,2.8h8.839l-1.632,9.79H44.973Zm0-2.8V28.8H55.91l-1.632,9.79ZM29.588,28.8v9.79H19.8V28.8ZM19.8,41.385h9.79v9.79H19.8Zm40.95,9.79H55.013l1.632-9.79h7.365Zm4.2-12.588H57.111l1.632-9.79h9.463Z" transform="translate(3.979 7.591)"/><path class="a" d="M37.594,11.595c1.708,0,2.8.828,2.8,1.4a1.4,1.4,0,0,0,2.8,0c0-1.987-1.761-3.6-4.2-4.056V7.4a1.4,1.4,0,1,0-2.8,0V8.937C33.761,9.394,32,11,32,12.993c0,2.352,2.457,4.2,5.595,4.2,1.708,0,2.8.828,2.8,1.4s-1.09,1.4-2.8,1.4-2.8-.828-2.8-1.4a1.4,1.4,0,0,0-2.8,0c0,1.987,1.761,3.6,4.2,4.056v1.538a1.4,1.4,0,1,0,2.8,0V22.644c2.435-.457,4.2-2.066,4.2-4.056,0-2.352-2.457-4.2-5.595-4.2-1.708,0-2.8-.828-2.8-1.4S35.887,11.595,37.594,11.595Z" transform="translate(9.959 -0.381)"/></g></svg>